HIERARCHY
ROOT Hips
{
	OFFSET -0.001795 -0.223333 0.028219
	CHANNELS 6 Xposition Yposition Zposition Zrotation Yrotation Xrotation 
	JOINT LeftUpLeg
	{
		OFFSET 0.069520 -0.091406 -0.006815
		CHANNELS 3 Zrotation Yrotation Xrotation
		JOINT LeftLeg
		{
			OFFSET 0.034277 -0.375199 -0.004496
			CHANNELS 3 Zrotation Yrotation Xrotation
			JOINT LeftFoot
			{
				OFFSET -0.013596 -0.397961 -0.043693
				CHANNELS 3 Zrotation Yrotation Xrotation
				JOINT LeftToe
				{
					OFFSET 0.026358 -0.055791 0.119288
					CHANNELS 3 Zrotation Yrotation Xrotation
					End Site
					{
						OFFSET 0.000000 0.000000 0.000000
					}
				}
			}
		}
	}
	JOINT RightUpLeg
	{
		OFFSET -0.067670 -0.090522 -0.004320
		CHANNELS 3 Zrotation Yrotation Xrotation
		JOINT RightLeg
		{
			OFFSET -0.038290 -0.382569 -0.008850
			CHANNELS 3 Zrotation Yrotation Xrotation
			JOINT RightFoot
			{
				OFFSET 0.015774 -0.398415 -0.042312
				CHANNELS 3 Zrotation Yrotation Xrotation
				JOINT RightToe
				{
					OFFSET -0.025372 -0.048144 0.123348
					CHANNELS 3 Zrotation Yrotation Xrotation
					End Site
					{
						OFFSET 0.000000 0.000000 0.000000
					}
				}
			}
		}
	}
	JOINT Spine
	{
		OFFSET -0.002533 0.108963 -0.026696
		CHANNELS 3 Zrotation Yrotation Xrotation
		JOINT Spine1
		{
			OFFSET 0.005487 0.135180 0.001092
			CHANNELS 3 Zrotation Yrotation Xrotation
			JOINT Spine2
			{
				OFFSET 0.001457 0.052922 0.025425
				CHANNELS 3 Zrotation Yrotation Xrotation
				JOINT Neck
				{
					OFFSET -0.002778 0.213870 -0.042857
					CHANNELS 3 Zrotation Yrotation Xrotation
					JOINT Head
					{
						OFFSET 0.005152 0.064970 0.051349
						CHANNELS 3 Zrotation Yrotation Xrotation
						End Site
						{
							OFFSET 0.000000 0.000000 0.000000
						}
					}
				}
				JOINT LeftShoulder
				{
					OFFSET 0.078845 0.121749 -0.034090
					CHANNELS 3 Zrotation Yrotation Xrotation
					JOINT LeftArm
					{
						OFFSET 0.090977 0.030469 -0.008868
						CHANNELS 3 Zrotation Yrotation Xrotation
						JOINT LeftForeArm
						{
							OFFSET 0.259612 -0.012772 -0.027456
							CHANNELS 3 Zrotation Yrotation Xrotation
							JOINT LeftHand
							{
								OFFSET 0.249234 0.008986 -0.001171
								CHANNELS 3 Zrotation Yrotation Xrotation
								End Site
								{
									OFFSET 0.000000 0.000000 0.000000
								}
							}
						}
					}
				}
				JOINT RightShoulder
				{
					OFFSET -0.081759 0.118833 -0.038615
					CHANNELS 3 Zrotation Yrotation Xrotation
					JOINT RightArm
					{
						OFFSET -0.096012 0.032551 -0.009143
						CHANNELS 3 Zrotation Yrotation Xrotation
						JOINT RightForeArm
						{
							OFFSET -0.253742 -0.013329 -0.021401
							CHANNELS 3 Zrotation Yrotation Xrotation
							JOINT RightHand
							{
								OFFSET -0.255298 0.007772 -0.005559
								CHANNELS 3 Zrotation Yrotation Xrotation
								End Site
								{
									OFFSET 0.000000 0.000000 0.000000
								}
							}
						}
					}
				}
			}
		}
	}
}
MOTION
Frames: 7
Frame Time: 0.050000
-0.001291 0.939320 -0.013568 -1.740904 -4.144454 7.393188 4.209129 -0.079996 0.314807 -1.145017 0.393989 -9.830579 -0.456996 1.658596 6.846882 0.000000 0.000000 0.000000 0.565841 0.374210 -3.914976 -3.348384 -0.013319 -4.921086 1.066446 -1.231088 6.884896 0.000000 0.000000 0.000000 7.031136 1.144888 -12.425266 -3.012775 1.427960 -0.114343 -6.161870 8.668094 3.530405 10.129728 -6.226061 -7.476404 0.000000 0.000000 0.000000 -11.684131 2.008906 -3.120823 -61.483019 -0.758802 -7.314167 -4.326526 -41.232399 2.181190 0.000000 0.000000 0.000000 10.881417 -12.676369 -5.953228 74.688866 -7.484009 -10.657006 5.559364 41.858584 4.607649 0.000000 0.000000 0.000000 
-0.001815 0.939314 -0.013959 -1.730388 -3.634053 7.144443 4.491975 -0.090183 0.286908 -1.361918 0.385093 -9.452856 -0.888371 0.754587 6.457052 0.000000 0.000000 0.000000 0.599912 0.356750 -3.733443 -3.149529 -0.000370 -4.588015 0.670889 -2.016517 6.848903 0.000000 0.000000 0.000000 7.006680 1.153399 -12.585519 -2.959589 1.404263 -0.016993 -6.337335 8.411964 3.790933 10.499093 -6.781453 -6.425740 0.000000 0.000000 0.000000 -11.471122 3.699864 -3.796414 -60.955298 -0.222678 -7.566634 -5.976646 -53.330897 3.555549 0.000000 0.000000 0.000000 10.410730 -14.095777 -6.554783 73.662013 -8.858145 -11.339225 9.332543 50.391482 7.634371 0.000000 0.000000 0.000000 
-0.002236 0.939567 -0.014488 -1.723952 -3.542388 6.978398 4.529043 -0.099678 0.117988 -1.285185 0.370370 -9.050428 -1.140046 0.365031 6.650574 0.000000 0.000000 0.000000 0.318067 0.372919 -3.843315 -2.625080 -0.015185 -4.343586 0.535754 -2.250887 6.752358 0.000000 0.000000 0.000000 6.965155 1.140844 -12.507538 -2.846870 1.356461 0.337385 -6.629370 8.476497 3.506376 10.499179 -7.002879 -5.536500 0.000000 0.000000 0.000000 -11.403329 5.541747 -4.594645 -61.064874 0.199560 -7.825799 -8.353504 -64.433810 5.740432 0.000000 0.000000 0.000000 10.314126 -15.655540 -7.258344 73.148154 -9.662264 -11.652127 13.788600 57.413093 11.515093 0.000000 0.000000 0.000000 
-0.002544 0.939203 -0.014947 -1.730502 -3.180589 6.702162 4.771472 -0.100483 0.208320 -1.538774 0.378144 -9.115437 -1.405975 -0.156385 6.511194 0.000000 0.000000 0.000000 0.330821 0.332915 -3.443220 -2.566116 -0.011538 -4.251506 0.262632 -2.652568 6.413337 0.000000 0.000000 0.000000 6.678614 1.106001 -12.426709 -2.663757 1.272493 0.635147 -6.461962 7.912470 3.549536 10.462613 -7.302554 -4.388742 0.000000 0.000000 0.000000 -12.350717 6.568217 -5.232604 -61.409323 0.888195 -8.185836 -7.929978 -73.290606 6.563884 0.000000 0.000000 0.000000 10.530545 -16.257155 -7.607027 72.768608 -10.138621 -11.981681 17.607615 61.999710 14.950466 0.000000 0.000000 0.000000 
-0.002839 0.938845 -0.015434 -1.858662 -3.431528 6.650667 5.138621 -0.130422 -0.315783 -1.878634 0.371094 -8.201343 -1.414039 -0.242901 6.382828 0.000000 0.000000 0.000000 0.348410 0.338389 -3.505374 -2.618431 0.008363 -3.962029 0.504774 -2.133868 6.381008 0.000000 0.000000 0.000000 6.969071 1.169850 -12.709840 -2.732983 1.308107 0.687779 -6.648642 8.074380 3.554661 10.468305 -7.347631 -4.237612 0.000000 0.000000 0.000000 -11.977884 6.633048 -5.171863 -61.484501 1.040229 -8.306867 -10.128084 -76.345555 8.623077 0.000000 0.000000 0.000000 10.691528 -16.257606 -7.628760 72.678953 -10.164153 -11.977570 18.863154 62.624480 15.940433 0.000000 0.000000 0.000000 
-0.003141 0.938609 -0.015878 -1.888500 -3.702419 6.356327 4.977529 -0.124334 -0.397119 -1.774744 0.356860 -7.693734 -1.281645 -0.084650 6.198628 0.000000 0.000000 0.000000 0.540985 0.316865 -3.332695 -2.976191 0.040517 -3.801966 0.729170 -1.693750 6.426971 0.000000 0.000000 0.000000 7.092235 1.198074 -12.732941 -2.730110 1.314912 1.085351 -6.552464 8.159269 3.452354 10.428855 -7.301192 -4.298791 0.000000 0.000000 0.000000 -13.425682 5.979351 -5.258497 -60.586003 0.977203 -8.002638 -10.489535 -72.345241 8.314921 0.000000 0.000000 0.000000 11.481680 -14.905235 -7.120594 72.567887 -9.238059 -11.483665 14.527065 57.692254 11.915354 0.000000 0.000000 0.000000 
-0.003393 0.937848 -0.016396 -2.030250 -4.018057 5.995625 5.004155 -0.115722 -0.392395 -1.834204 0.341137 -6.761242 -0.824928 0.336060 5.084224 0.000000 0.000000 0.000000 0.703085 0.247907 -2.710874 -3.043760 0.034341 -3.955206 1.174228 -0.705395 6.334325 0.000000 0.000000 0.000000 7.320138 1.247138 -12.822782 -2.642434 1.283956 1.619606 -6.677856 8.554532 3.381864 11.049870 -7.713332 -4.537969 0.000000 0.000000 0.000000 -14.161347 3.559241 -4.405576 -59.971491 0.135442 -7.388082 -8.517766 -61.911766 5.601420 0.000000 0.000000 0.000000 12.626020 -13.146024 -6.399576 72.836331 -7.354677 -10.414245 9.709353 48.215217 7.413358 0.000000 0.000000 0.000000 
